<svg width="237" height="237" fill="none" xmlns="http://www.w3.org/2000/svg"><path d="M100.848 177.363a4.416 4.416 0 10-8.834 0v33.796a4.417 4.417 0 008.834 0v-33.796zM143.615 177.662a4.416 4.416 0 10-8.834 0v32.83a4.417 4.417 0 108.834 0v-32.83z" fill="#E84F1D"/><path d="M96.033 205.608H80.539a4.816 4.816 0 00-4.815 4.816v.336a4.816 4.816 0 004.815 4.816h15.494a4.816 4.816 0 004.815-4.816v-.336a4.816 4.816 0 00-4.815-4.816zM155.09 204.855h-15.493a4.816 4.816 0 00-4.816 4.815v.336a4.816 4.816 0 004.816 4.816h15.493a4.816 4.816 0 004.816-4.816v-.336a4.816 4.816 0 00-4.816-4.815zM37.648 185.549c5.357 0 9.7-4.343 9.7-9.7 0-5.357-4.343-9.7-9.7-9.7-5.357 0-9.7 4.343-9.7 9.7 0 5.357 4.343 9.7 9.7 9.7zM204.834 169.351a29.792 29.792 0 00-29.771-29.771v9.157a20.642 20.642 0 0120.639 20.639l9.132-.025z" fill="#E84F1D"/><path d="M42.582 169.351a20.641 20.641 0 0120.639-20.639v-9.132a29.796 29.796 0 00-29.797 29.796l9.158-.025zM200.636 185.549c5.357 0 9.699-4.343 9.699-9.7 0-5.357-4.342-9.7-9.699-9.7s-9.7 4.343-9.7 9.7c0 5.357 4.343 9.7 9.7 9.7z" fill="#E84F1D"/><path d="M175.094 53.859l6.367 72.638c2.435 27.81-24.583 48.897-50.972 39.783l-8.84-3.027c-28.656-9.906-35.185-47.521-11.512-66.49l57.481-46.069a4.608 4.608 0 016.606.872 4.62 4.62 0 01.87 2.293z" fill="#C93B17"/><path d="M63.37 53.554l-6.367 72.632c-2.435 27.809 24.59 48.903 50.972 39.783l8.84-3.053c28.657-9.905 35.185-47.52 11.519-66.49L70.852 50.358a4.616 4.616 0 00-7.482 3.196z" fill="#C93B17"/><path d="M113.769 19.97l-50.567 90.909c-19.05 34.264 5.713 76.358 44.904 76.358h22.072c39.191 0 63.954-42.107 44.903-76.358l-50.566-90.91a6.15 6.15 0 00-10.746 0z" fill="#E84F1D"/><path d="M114.784 45.704l-37.34 67.131c-35.199 82.233 118.6 82.233 83.39 0l-37.341-67.13a4.982 4.982 0 00-6.88-1.873 4.982 4.982 0 00-1.829 1.872z" fill="#F39719"/><path d="M154.299 116.362c0-8.746-7.09-15.836-15.836-15.836s-15.836 7.09-15.836 15.836v11.394c0 8.746 7.09 15.836 15.836 15.836s15.836-7.09 15.836-15.836v-11.394zM115.65 116.362c0-8.746-7.09-15.836-15.836-15.836s-15.836 7.09-15.836 15.836v11.394c0 8.746 7.09 15.836 15.836 15.836s15.836-7.09 15.836-15.836v-11.394z" fill="#FAFAFA"/><path d="M108.66 118.05a6.372 6.372 0 00-1.797-4.644 6.391 6.391 0 00-7.075-1.436 6.396 6.396 0 00-3.465 3.576 6.383 6.383 0 00-.427 2.504v6.852a6.383 6.383 0 006.382 6.186 6.383 6.383 0 006.382-6.186v-6.852zM142.805 118.05a6.372 6.372 0 00-1.797-4.644 6.391 6.391 0 00-7.075-1.436 6.397 6.397 0 00-3.465 3.576 6.372 6.372 0 00-.427 2.504v6.852a6.383 6.383 0 0010.826 4.386 6.385 6.385 0 001.938-4.386v-6.852z" fill="#000"/><path d="M135.573 119.694a2.878 2.878 0 100-5.756 2.878 2.878 0 000 5.756zM101.309 119.694a2.877 2.877 0 10.001-5.755 2.877 2.877 0 00-.001 5.755z" fill="#FAFAFA"/><path d="M107.159 156.281c4.566 9.09 19.424 9.071 23.972 0a3.41 3.41 0 00-2.299-4.865 3.305 3.305 0 00-1.165-.037l-7.127.841c-.946.108-1.901.108-2.847 0l-7.108-.804a3.516 3.516 0 00-1.171.044 3.406 3.406 0 00-2.294 1.865 3.391 3.391 0 00.039 2.956z" fill="#D07512"/></svg>