<svg version="1.2" xmlns="http://www.w3.org/2000/svg" viewBox="0 0 360 360" width="360" height="360"><path fill="#f90" fill-rule="evenodd" d="m180 0c23.9 0 46.8 9.5 63.6 26.4 16.9 16.8 26.4 39.7 26.4 63.6 0 30.7-16.8 55.9-34.4 73.9-8.8 9-18.5 17.1-28.8 24.2l-4.2 2.9-2 1.3-3.8 2.4-3.4 2.1-4.1 2.4c-2.9 1.6-6.1 2.5-9.3 2.5-3.3 0-6.4-0.9-9.3-2.5l-4.1-2.4-5.2-3.2-2-1.3-4.1-2.7c-11.1-7.5-21.4-16.1-30.9-25.7-17.6-18-34.4-43.2-34.4-73.9 0-23.9 9.5-46.8 26.4-63.6 16.8-16.9 39.7-26.4 63.6-26.4zm0 60c-3.9 0-7.8 0.8-11.5 2.3-3.6 1.5-6.9 3.7-9.7 6.5-2.8 2.8-5 6.1-6.5 9.7-1.5 3.7-2.3 7.6-2.3 11.5 0 3.9 0.8 7.8 2.3 11.5 1.5 3.6 3.7 6.9 6.5 9.7 2.8 2.8 6.1 5 9.7 6.5 3.7 1.5 7.6 2.3 11.5 2.3 8 0 15.6-3.2 21.2-8.8 5.6-5.6 8.8-13.2 8.8-21.2 0-8-3.2-15.6-8.8-21.2-5.6-5.6-13.2-8.8-21.2-8.8z"/></svg>