<svg xmlns="http://www.w3.org/2000/svg" viewBox="0 0 16 16"><path fill="#c74343" d="M5.3,4.6c0,0,0-0.1,0-0.1C5.3,3.1,6.6,2,8,2s2.5,1.1,2.5,2.5c0,0,0,0.1,0,0.1h1c0,0,0-0.1,0-0.1 C11.5,2.6,10,1,8,1S4.3,2.6,4.3,4.5c0,0,0,0.1,0,0.1L5.3,4.6L5.3,4.6z"/><path fill="#ffeea3" d="M5.5,4.2c0-0.4-0.2-0.7-0.5-0.7S4.5,3.8,4.5,4.2c0,0,0,0.2,0,0.3h1C5.5,4.4,5.5,4.2,5.5,4.2z"/><path fill="#ba9b48" d="M6,5H4V4.2C4,3.5,4.4,3,5,3s1,0.5,1,1.2V5z"/><path fill="#ffeea3" d="M11.5,4.2c0-0.4-0.2-0.7-0.5-0.7s-0.5,0.3-0.5,0.7c0,0,0,0.2,0,0.3h1C11.5,4.4,11.5,4.2,11.5,4.2z"/><path fill="#ba9b48" d="M12,5h-2V4.2C10,3.5,10.4,3,11,3s1,0.5,1,1.2V5z"/><path fill="#c0b3df" d="M2.5 4.6L1.5 13.5 14.5 13.5 13.5 4.5"/><path fill="#8b75a1" d="M15.1 14L0.9 14 2 4.5 3 4.6 2.1 13 13.9 13 13 4.6 14 4.5z"/><path fill="#c0b3df" d="M14.5,9.5l-1-5h-11l-1,5c0,0,3.1,1,6.5,1S14.5,9.5,14.5,9.5z"/><path fill="#8b75a1" d="M8,11c-3.5,0-6.5-1-6.6-1L0.9,9.8L2.1,4h11.8l1.2,5.8L14.7,10C14.5,10,11.4,11,8,11z M2.1,9.2 C3,9.4,5.4,10,8,10c2.6,0,5-0.6,5.9-0.9L13.1,5H2.9L2.1,9.2z"/><path fill="#ba9b48" d="M6.5 10.5C6.5 11.3 7.2 12 8 12s1.5-.7 1.5-1.5H6.5zM13 14H14V15H13zM2 14H3V15H2z"/></svg>