<svg width="32" height="32" viewBox="0 0 32 32" fill="none" xmlns="http://www.w3.org/2000/svg">
<path d="M6.72002 12.64L4.00002 9.75997L9.92002 4.31997H22.24L28 9.75997L25.12 12.64L23.2 10.72V27.36H8.80002V10.72L6.72002 12.64Z" fill="#C2E8FF"/>
<path fill-rule="evenodd" clip-rule="evenodd" d="M9.59524 3.96653C9.68382 3.88513 9.79973 3.83997 9.92002 3.83997H22.24C22.3626 3.83997 22.4805 3.88685 22.5696 3.971L28.3296 9.411C28.4239 9.50004 28.4781 9.62344 28.48 9.75311C28.4818 9.88278 28.4311 10.0077 28.3394 10.0994L25.4594 12.9794C25.272 13.1668 24.9681 13.1668 24.7806 12.9794L23.68 11.8788V27.36C23.68 27.6251 23.4651 27.84 23.2 27.84H8.80002C8.53492 27.84 8.32002 27.6251 8.32002 27.36V11.8163L7.04559 12.9927C6.85237 13.171 6.55161 13.1607 6.37105 12.9695L3.65105 10.0895C3.56286 9.99617 3.51578 9.87134 3.52032 9.74298C3.52487 9.61462 3.58067 9.49343 3.67524 9.40653L9.59524 3.96653ZM10.1071 4.79997L4.6831 9.78415L6.74315 11.9654L8.47445 10.3673C8.61454 10.2379 8.81789 10.2038 8.99254 10.2803C9.16718 10.3567 9.28002 10.5293 9.28002 10.72V26.88H22.72V10.72C22.72 10.5258 22.837 10.3508 23.0163 10.2765C23.1957 10.2022 23.4022 10.2433 23.5394 10.3806L25.12 11.9611L27.3114 9.7698L22.0492 4.79997H10.1071Z" fill="#7496C4"/>
<path d="M19.84 3.83997C19.84 5.96074 18.1208 7.35997 16 7.35997C13.8792 7.35997 12.16 5.96074 12.16 3.83997C12.16 3.83997 13.8792 3.84002 16 3.84002C18.1208 3.84002 19.84 3.83997 19.84 3.83997Z" fill="#8BB7F0"/>
<path fill-rule="evenodd" clip-rule="evenodd" d="M19.84 3.83997C19.84 4.17937 19.796 4.5003 19.7133 4.79997C19.2794 6.37276 17.7814 7.35997 16 7.35997C14.2187 7.35997 12.7206 6.37276 12.2867 4.79997C12.2041 4.5003 12.16 4.17937 12.16 3.83997H19.84ZM13.3024 4.79999C13.6951 5.76575 14.6918 6.39997 16 6.39997C17.3082 6.39997 18.305 5.76575 18.6976 4.79999H13.3024Z" fill="#4E7AB4"/>
</svg>
