<svg xmlns="http://www.w3.org/2000/svg" viewBox="0 0 16 16"><path fill="#f78f8f" d="M6.309,14.5L5.38,12.641l-0.132-0.075C4.16,11.944,1.5,8.773,1.5,5.714 C1.5,4.913,1.942,4.5,2.131,4.5c1.233,0,1.365,1.477,1.371,1.54l0.009,0.119L4.333,7.5h1.022L5.124,6.812 C4.892,6.241,4.5,4.795,4.5,3c0-0.751,0.394-2.5,4.043-2.5c4.19,0,4.957,1.371,4.957,4.071c0,3.853-0.551,7.072-1.37,8.009 l-0.081,0.092L11.606,14.5H6.309z"/><path fill="#c74343" d="M8.543,1C12.357,1,13,2.102,13,4.571c0,4.106-0.627,6.972-1.247,7.68l-0.162,0.185l-0.058,0.239 L11.213,14H6.618l-0.724-1.447l-0.135-0.271l-0.263-0.15C4.428,11.521,2,8.464,2,5.714c0-0.406,0.146-0.63,0.224-0.709 C2.871,5.079,2.987,5.914,3.003,6.08l0.019,0.239l0.125,0.204l0.614,1L4.1,8h0.56h1.484L5.587,6.625C5.304,5.926,5,4.494,5,3 C5,1.71,6.258,1,8.543,1 M8.543,0C4.771,0,4,1.814,4,3c0,1.742,0.364,3.267,0.66,4H4.614L4,6c0,0-0.161-2-1.87-2 C1.635,4,1,4.649,1,5.714C1,8.843,3.671,12.24,5,13l1,2c0.471,0,6,0,6,0l0.506-2.09C13.521,11.75,14,8.089,14,4.571 C14,1.505,12.895,0,8.543,0L8.543,0z"/><g><path fill="#f76d6d" d="M6.087,15.5c-0.167,0-0.309-0.128-0.33-0.299l-0.26-2.258L5.498,12.5h6.931l-0.356,2.676 c-0.019,0.192-0.161,0.324-0.333,0.324H6.087z"/><path fill="#ab3434" d="M11.858,13l-0.266,2H6.237l-0.23-2H11.858 M13,12H5v1l0.261,2.262C5.313,15.684,5.667,16,6.087,16 h5.652c0.427,0,0.786-0.328,0.829-0.758L13,12L13,12z"/></g></svg>