<svg xmlns="http://www.w3.org/2000/svg" viewBox="0 0 16 16"><path fill="#ffc49c" d="M2.5 1.5H14.5V9.5H2.5z"/><path fill="#a16a4a" d="M14,2v7H3V2H14 M15,1H2v9h13V1L15,1z"/><path fill="#ffc49c" d="M2.5,11.5v-2H15c0.275,0,0.5,0.224,0.5,0.5v1.5H2.5z"/><path fill="#a16a4a" d="M15,10v1H3v-1H15 M15,9H2v3h14v-2C16,9.448,15.552,9,15,9L15,9z"/><path fill="#5e9c76" d="M4 3H13V9H4z"/><path fill="#ffeea3" d="M3 2.5A1.5 1.5 0 1 0 3 5.5A1.5 1.5 0 1 0 3 2.5Z"/><path fill="#ba9b48" d="M3,3c0.551,0,1,0.449,1,1S3.551,5,3,5S2,4.551,2,4S2.449,3,3,3 M3,2C1.895,2,1,2.895,1,4 s0.895,2,2,2s2-0.895,2-2S4.105,2,3,2L3,2z"/><path fill="#ffeea3" d="M8,8H6V6h2c0.552,0,1,0.448,1,1v0C9,7.552,8.552,8,8,8z"/><path fill="#c2e8ff" d="M1.5,12.5V8c0-0.827,0.673-1.5,1.5-1.5h4.5v2h-3v4H1.5z"/><path fill="#7496c4" d="M7,7v1H5H4v1v3H2V8c0-0.551,0.449-1,1-1H7 M8,6H3C1.895,6,1,6.895,1,8v5h4V9h3V6L8,6z"/><g><path fill="#ffeea3" d="M3 11.5A1.5 1.5 0 1 0 3 14.5A1.5 1.5 0 1 0 3 11.5Z"/><path fill="#ba9b48" d="M3,12c0.551,0,1,0.449,1,1s-0.449,1-1,1s-1-0.449-1-1S2.449,12,3,12 M3,11c-1.105,0-2,0.895-2,2 s0.895,2,2,2s2-0.895,2-2S4.105,11,3,11L3,11z"/></g><g><path fill="#ffeea3" d="M6 11.5A1.5 1.5 0 1 0 6 14.5A1.5 1.5 0 1 0 6 11.5Z"/><path fill="#ba9b48" d="M6,12c0.551,0,1,0.449,1,1s-0.449,1-1,1s-1-0.449-1-1S5.449,12,6,12 M6,11c-1.105,0-2,0.895-2,2 s0.895,2,2,2s2-0.895,2-2S7.105,11,6,11L6,11z"/></g><g><path fill="#ffeea3" d="M9 11.5A1.5 1.5 0 1 0 9 14.5A1.5 1.5 0 1 0 9 11.5Z"/><path fill="#ba9b48" d="M9,12c0.551,0,1,0.449,1,1s-0.449,1-1,1s-1-0.449-1-1S8.449,12,9,12 M9,11c-1.105,0-2,0.895-2,2 s0.895,2,2,2s2-0.895,2-2S10.105,11,9,11L9,11z"/></g><g><path fill="#ffeea3" d="M12 11.5A1.5 1.5 0 1 0 12 14.5A1.5 1.5 0 1 0 12 11.5Z"/><path fill="#ba9b48" d="M12,12c0.551,0,1,0.449,1,1s-0.449,1-1,1s-1-0.449-1-1S11.449,12,12,12 M12,11c-1.105,0-2,0.895-2,2 s0.895,2,2,2s2-0.895,2-2S13.105,11,12,11L12,11z"/></g></svg>