<svg width="33" height="33" viewBox="0 0 33 33" fill="none" xmlns="http://www.w3.org/2000/svg">
<path d="M14.5167 3.98669C14.506 3.94869 14.5 3.88269 14.5 3.83335C14.5 3.46535 14.7987 3.16669 15.1667 3.16669C15.3233 3.16669 15.4333 3.22535 15.476 3.24202C16.2913 3.56069 21.89 6.20069 20.5953 13.8334C22.4753 12.7007 21.8033 10.5 22.418 10.5C22.6493 10.5 22.7433 10.586 22.8847 10.788C24.9427 13.724 26.5 17.2247 26.5 20.5C26.5 26.0227 22.0227 30.5 16.5 30.5C10.4273 30.5 6.5 25.3847 6.5 20.5C6.5 12.3754 16.0753 10.8754 14.5167 3.98669Z" fill="#FF5A5A"/>
<path d="M16.246 14.6427C16.246 14.6427 16.078 14.5 15.8333 14.5C15.4653 14.5 15.1666 14.7987 15.1666 15.1667C15.8333 19.1667 11.1666 20.5 11.1666 25.1667C11.1666 28.112 13.5546 30.5 16.5 30.5C19.4453 30.5 21.8333 28.112 21.8333 25.1667C21.8333 21.3667 18.486 16.294 16.246 14.6427Z" fill="#FFD246"/>
</svg>
