<svg xmlns="http://www.w3.org/2000/svg" width="16" height="16" viewBox="0 0 16 16"><path fill="#ffdea3" d="M10,4.698c-0.496,0-0.957-0.44-1.148-1.095L8.806,3.448L8.652,3.4C8.561,3.373,8.5,3.291,8.5,3.198 V2.415c0-0.524,0.838-1.378,1.5-1.378c0.25,0,1.5,0.058,1.5,1.189v0.972c0,0.093-0.061,0.175-0.152,0.202l-0.154,0.048 l-0.046,0.155C10.957,4.258,10.496,4.698,10,4.698z"/><path fill="#967a44" d="M10,5.198c-0.693,0-1.326-0.542-1.599-1.36C8.158,3.722,8,3.477,8,3.198V2.415 c0-0.843,1.103-1.878,2-1.878c0.996,0,2,0.522,2,1.689v0.972c0,0.277-0.157,0.521-0.401,0.64C11.327,4.655,10.694,5.198,10,5.198z M9,2.985L9.21,3.05l0.121,0.413C9.456,3.889,9.737,4.198,10,4.198s0.544-0.31,0.668-0.735L10.79,3.05L11,2.985V2.227 c0-0.622-0.699-0.689-1-0.689c-0.406,0-0.998,0.655-1,0.878V2.985z"/><path fill="#7a4f34" d="M11.5,2.499l-0.636-0.795H9.135L8.524,2.499L8.5,2.829c0-0.019,0-0.368,0.001-0.387 c0.023-1.623,0.783-1.913,1.634-1.936l0.256,0.255h0.124c0.636,0,0.986,0.533,0.986,1.5v0.568L11.5,2.499z"/><path fill="#7a4f34" d="M8.999,2.865L8,2.829c0-0.021,0-0.381,0-0.4c0.022-1.589,0.716-2.384,2.12-2.423L10.335,0 L10.6,0.264C11.018,0.29,12,0.536,12,2.261v0.568h-1V2.675l-0.376-0.471H9.381l-0.37,0.48L8.999,2.865z M9.387,1.204h0.74 L9.939,1.017C9.727,1.036,9.538,1.082,9.387,1.204z"/><path fill="#ffdea3" d="M6,4.698c-0.496,0-0.957-0.44-1.148-1.095L4.806,3.448L4.652,3.4C4.561,3.373,4.5,3.291,4.5,3.198 V2.415c0-0.524,0.838-1.378,1.5-1.378c0.25,0,1.5,0.058,1.5,1.189v0.972c0,0.093-0.061,0.175-0.152,0.202L7.194,3.448L7.148,3.603 C6.957,4.258,6.496,4.698,6,4.698z"/><path fill="#967a44" d="M6,5.198c-0.693,0-1.326-0.542-1.599-1.36C4.158,3.722,4,3.477,4,3.198V2.415 c0-0.843,1.103-1.878,2-1.878c0.996,0,2,0.522,2,1.689v0.972c0,0.277-0.157,0.521-0.401,0.64C7.327,4.655,6.694,5.198,6,5.198z M5,2.985L5.21,3.05l0.121,0.413C5.456,3.889,5.737,4.198,6,4.198s0.544-0.31,0.668-0.735L6.79,3.05L7,2.985V2.227 c0-0.622-0.699-0.689-1-0.689c-0.406,0-0.998,0.655-1,0.878V2.985z"/><path fill="#7a4f34" d="M7.5,2.499L6.864,1.704H5.135L4.524,2.499L4.5,2.829c0-0.019,0-0.368,0.001-0.387 c0.023-1.623,0.783-1.913,1.634-1.936L6.39,0.761h0.124c0.636,0,0.986,0.533,0.986,1.5v0.568L7.5,2.499z"/><path fill="#7a4f34" d="M4.999,2.865L4,2.829c0-0.021,0-0.381,0-0.4c0.022-1.589,0.716-2.384,2.12-2.423L6.335,0L6.6,0.264 C7.018,0.29,8,0.536,8,2.261v0.568H7V2.675L6.624,2.204H5.381l-0.37,0.48L4.999,2.865z M5.387,1.204h0.74L5.939,1.017 C5.727,1.036,5.538,1.082,5.387,1.204z"/><path fill="#4e7ab5" d="M0.565,11.499c0.216-1.748,1.719-2.081,1.789-2.095l2.458,0.009C5.055,9.476,6.364,9.884,6.565,11.5 L0.565,11.499L0.565,11.499z"/><path fill="#4e7ab5" d="M7.131,12H0l0.069-0.562C0.332,9.317,2.179,8.93,2.257,8.914l2.618-0.001l0.06,0.016 c0.313,0.08,1.886,0.578,2.126,2.51L7.131,12z M1.203,10.999L5.927,11c-0.304-0.756-0.948-1.016-1.185-1.087l-2.33-0.009 C2.232,9.953,1.525,10.192,1.203,10.999z"/><path fill="#ffdea3" d="M3.5,9.5c-0.661,0-1.276-0.586-1.531-1.46L1.908,7.834L1.702,7.77C1.582,7.733,1.5,7.624,1.5,7.5 V6.456c0-0.698,1.117-1.838,2-1.838c0.334,0,2,0.077,2,1.586V7.5c0,0.124-0.082,0.233-0.202,0.27L5.092,7.834L5.031,8.04 C4.776,8.914,4.161,9.5,3.5,9.5z"/><path fill="#967a44" d="M3.5,10c-0.872,0-1.668-0.709-1.996-1.771C1.201,8.115,1,7.828,1,7.5V6.456 c0-0.944,1.317-2.338,2.5-2.338c1.153,0,2.5,0.546,2.5,2.086V7.5c0,0.327-0.2,0.613-0.503,0.729C5.169,9.29,4.372,10,3.5,10z M2,7.339l0.313,0.098l0.136,0.463C2.638,8.548,3.07,9,3.5,9s0.862-0.452,1.051-1.101l0.136-0.463L5,7.339V6.204 c0-0.98-1.049-1.086-1.5-1.086C2.872,5.118,2,6.047,2,6.456V7.339z"/><path fill="#7a4f34" d="M5.5,6.56L4.652,5.5H2.347L1.532,6.56L1.5,7c0-0.026,0-0.491,0.001-0.516 C1.532,4.32,2.545,3.933,3.679,3.902l0.341,0.34h0.166c0.848,0,1.314,0.71,1.314,2V7L5.5,6.56z"/><path fill="#7a4f34" d="M1.999,7.036L1,7l0-0.516C1.04,3.786,2.54,3.434,3.666,3.402L3.88,3.396l0.347,0.347 C4.695,3.755,6,3.993,6,6.242V7H5V6.735L4.412,6H2.593L2.02,6.745L1.999,7.036z M2.321,5h2.397 c-0.132-0.172-0.31-0.258-0.533-0.258H3.813l-0.332-0.33C3.018,4.444,2.596,4.558,2.321,5z"/><g><path fill="#4e7ab5" d="M9.434,11.499c0.216-1.748,1.719-2.081,1.789-2.095l2.458,0.009 c0.244,0.062,1.553,0.471,1.754,2.087L9.434,11.499L9.434,11.499z"/><path fill="#4e7ab5" d="M16,12H8.869l0.069-0.562C9.2,9.317,11.047,8.93,11.126,8.914l2.618-0.001l0.06,0.016 c0.313,0.08,1.886,0.578,2.126,2.51L16,12z M10.071,10.999L14.796,11c-0.304-0.756-0.948-1.016-1.185-1.087l-2.33-0.009 C11.101,9.953,10.394,10.192,10.071,10.999z"/></g><g><path fill="#ffdea3" d="M12.5,9.5c-0.661,0-1.276-0.586-1.531-1.46l-0.061-0.206L10.702,7.77 C10.582,7.733,10.5,7.624,10.5,7.5V6.456c0-0.698,1.117-1.838,2-1.838c0.334,0,2,0.077,2,1.586V7.5c0,0.124-0.082,0.233-0.202,0.27 l-0.206,0.064L14.031,8.04C13.776,8.914,13.161,9.5,12.5,9.5z"/><path fill="#967a44" d="M12.5,10c-0.872,0-1.668-0.709-1.996-1.771C10.201,8.115,10,7.828,10,7.5V6.456 c0-0.944,1.317-2.338,2.5-2.338c1.153,0,2.5,0.546,2.5,2.086V7.5c0,0.327-0.2,0.613-0.503,0.729C14.169,9.29,13.372,10,12.5,10z M11,7.339l0.313,0.098l0.136,0.463C11.638,8.548,12.07,9,12.5,9s0.862-0.452,1.051-1.101l0.136-0.463L14,7.339V6.204 c0-0.98-1.049-1.086-1.5-1.086c-0.628,0-1.5,0.929-1.5,1.338V7.339z"/></g><g><path fill="#7a4f34" d="M14.5,6.56L13.652,5.5h-2.305l-0.815,1.06L10.5,7c0-0.026,0-0.491,0.001-0.516 c0.031-2.164,1.044-2.551,2.179-2.582l0.341,0.34h0.166c0.848,0,1.314,0.71,1.314,2V7L14.5,6.56z"/><path fill="#7a4f34" d="M10.999,7.036L10,7l0-0.516c0.039-2.698,1.54-3.051,2.665-3.082l0.215-0.006l0.347,0.347 C13.695,3.755,15,3.993,15,6.242V7h-1V6.735L13.412,6h-1.818L11.02,6.745L10.999,7.036z M11.321,5h2.397 c-0.132-0.172-0.31-0.258-0.533-0.258h-0.372l-0.332-0.33C12.018,4.444,11.596,4.558,11.321,5z"/></g><g><path fill="#8bb7f0" d="M4.53,15.499c0.25-2.022,1.989-2.407,2.069-2.423l2.843,0.01c0.282,0.072,1.796,0.545,2.029,2.414 L4.53,15.499L4.53,15.499z"/><path fill="#4e7ab5" d="M12.038,16H3.964l0.069-0.562c0.237-1.922,1.719-2.707,2.47-2.854l3.063,0.017 c0.353,0.091,2.129,0.652,2.401,2.837L12.038,16z M5.153,14.999L10.846,15c-0.348-1.001-1.187-1.329-1.473-1.414l-2.776-0.01 C6.632,13.579,5.559,13.817,5.153,14.999z"/></g><g><path fill="#ffdea3" d="M8,13.5c-0.826,0-1.595-0.733-1.914-1.825L6.01,11.417l-0.257-0.08C5.602,11.291,5.5,11.155,5.5,11 V9.695c0-0.873,1.396-2.297,2.5-2.297c0.417,0,2.5,0.096,2.5,1.982V11c0,0.155-0.102,0.291-0.253,0.337l-0.257,0.08l-0.076,0.258 C9.595,12.767,8.826,13.5,8,13.5z"/><path fill="#967a44" d="M8,14c-1.05,0-2.012-0.878-2.394-2.185l-0.002-0.001C5.244,11.705,5,11.377,5,11V9.695 c0-1.13,1.58-2.797,3-2.797c1.384,0,3,0.649,3,2.481V11c0,0.377-0.244,0.704-0.606,0.814l0,0.002C10.012,13.122,9.05,14,8,14z M6,10.891l0.414,0.129l0.152,0.514C6.818,12.397,7.408,13,8,13s1.182-0.603,1.434-1.466l0.152-0.515L10,10.891V9.38 c0-1.375-1.531-1.481-2-1.481c-0.859,0-2,1.232-2,1.797V10.891z"/></g><g><path fill="#36404d" d="M10.5,9.825L9.44,8.5H6.559L5.54,9.775L5.5,10.5c0-0.02,0-0.714,0-0.734 c0.028-2.737,1.3-3.224,2.724-3.263L8.65,6.928h0.207c1.06,0,1.643,0.888,1.643,2.5V10.5L10.5,9.825z"/><path fill="#36404d" d="M5.999,10.527L5,10.5c0-0.02,0-0.728,0-0.747c0.034-3.282,1.848-3.713,3.21-3.75l0.215-0.006 l0.432,0.431c0.645,0,2.143,0.292,2.143,3V10.5h-1v-0.499L9.2,9h-2.4L6.03,9.963L5.999,10.527z M6.319,8H9.68l0.137,0.172 C9.656,7.74,9.364,7.428,8.857,7.428H8.443L8.026,7.012C7.34,7.052,6.689,7.221,6.319,8L6.319,8z"/></g></svg>