<svg width="32" height="33" viewBox="0 0 32 33" fill="none" xmlns="http://www.w3.org/2000/svg">
<path d="M0 15.1667H32V17.8334H0V15.1667Z" fill="#90A4AE"/>
<path d="M28 23.1667C28 23.5354 27.702 23.8334 27.3333 23.8334H25.3333C24.9646 23.8334 24.6666 23.5354 24.6666 23.1667V9.83335C24.6666 9.46469 24.9646 9.16669 25.3333 9.16669H27.3333C27.702 9.16669 28 9.46469 28 9.83335V23.1667Z" fill="#FF5A5A"/>
<path d="M24.6667 25.8333C24.6667 26.202 24.3687 26.5 24 26.5H22C21.6314 26.5 21.3334 26.202 21.3334 25.8333V7.16667C21.3334 6.798 21.6314 6.5 22 6.5H24C24.3687 6.5 24.6667 6.798 24.6667 7.16667V25.8333Z" fill="#FF9696"/>
<path d="M4 23.1667C4 23.5354 4.298 23.8334 4.66667 23.8334H6.66667C7.03533 23.8334 7.33333 23.5354 7.33333 23.1667V9.83335C7.33333 9.46469 7.03533 9.16669 6.66667 9.16669H4.66667C4.298 9.16669 4 9.46469 4 9.83335V23.1667Z" fill="#FF5A5A"/>
<path d="M7.33337 25.8333C7.33337 26.202 7.63137 26.5 8.00004 26.5H10C10.3687 26.5 10.6667 26.202 10.6667 25.8333V7.16667C10.6667 6.798 10.3687 6.5 10 6.5H8.00004C7.63137 6.5 7.33337 6.798 7.33337 7.16667V25.8333Z" fill="#FF9696"/>
<path d="M1.33337 15.248H2.66671V17.9147H1.33337V15.248ZM29.3334 15.1667H30.6667V17.8334H29.3334V15.1667Z" fill="#607D8B"/>
</svg>
