<svg width="32" height="32" viewBox="0 0 32 32" fill="none" xmlns="http://www.w3.org/2000/svg">
<path fill-rule="evenodd" clip-rule="evenodd" d="M20.2564 7.92087C20.8898 7.60997 21.5138 7.63949 21.924 7.78866C22.0116 7.82052 22.088 7.87719 22.1439 7.95176L27.9039 15.6318C28.013 15.7772 28.0305 15.9718 27.9492 16.1344C27.8679 16.297 27.7017 16.3998 27.5199 16.3998H4.63991C4.4675 16.3998 4.30833 16.3073 4.22293 16.1575C4.13753 16.0077 4.13902 15.8237 4.22684 15.6753C5.00614 14.3585 6.26475 12.3894 7.51062 10.7602C8.13219 9.94737 8.76188 9.20417 9.33555 8.66768C9.62182 8.39997 9.90757 8.17093 10.1828 8.01088C10.4484 7.85641 10.7613 7.73246 11.0834 7.76173C12.7778 7.91577 13.5577 9.35396 13.743 10.0335C13.8127 10.2892 13.662 10.5531 13.4062 10.6229C13.1505 10.6926 12.8866 10.5418 12.8168 10.2861C12.6821 9.79223 12.118 8.81975 10.9965 8.71779C10.9665 8.71507 10.8637 8.72545 10.6654 8.84077C10.4767 8.95051 10.2502 9.12673 9.99127 9.36885C9.47461 9.85202 8.8823 10.5468 8.2732 11.3433C7.26783 12.6581 6.24746 14.2091 5.49049 15.4398H26.5599L21.4737 8.65817C21.2808 8.62179 20.9918 8.62932 20.6794 8.78264C20.3017 8.96805 19.8404 9.39228 19.4894 10.3283C19.3963 10.5765 19.1196 10.7023 18.8714 10.6092C18.6232 10.5161 18.4974 10.2394 18.5905 9.99123C19.0075 8.87923 19.6128 8.23679 20.2564 7.92087Z" fill="#599D75"/>
<path d="M5.75991 17.5198L4.63991 15.9198H27.5199L26.7199 17.5198H5.75991Z" fill="#B8E1BC"/>
<path fill-rule="evenodd" clip-rule="evenodd" d="M4.21416 15.6982C4.29682 15.5394 4.46093 15.4398 4.63991 15.4398H27.5199C27.6863 15.4398 27.8408 15.526 27.9282 15.6675C28.0157 15.809 28.0236 15.9856 27.9492 16.1344L27.1492 17.7345C27.0679 17.8971 26.9017 17.9998 26.7199 17.9998H5.75991C5.60328 17.9998 5.4565 17.9234 5.36668 17.7951L4.24668 16.1951C4.14404 16.0485 4.13151 15.8569 4.21416 15.6982ZM5.56183 16.3998L6.00983 17.0398H26.4233L26.7433 16.3998H5.56183Z" fill="#599D75"/>
<path d="M5.43992 20.0798C5.56792 23.2798 8.47992 23.7598 9.91992 23.5998C11.4132 23.4932 14.4959 22.6398 14.8799 20.0798C15.2639 17.5198 13.9732 16.3465 13.2799 16.0798H6.87992C6.34658 16.0798 5.31192 16.8798 5.43992 20.0798Z" fill="#C0E8FF"/>
<path fill-rule="evenodd" clip-rule="evenodd" d="M6.33855 17.0998C6.08176 17.5979 5.8573 18.5049 5.91953 20.0606C5.97649 21.4845 6.63512 22.2549 7.41635 22.6777C8.23123 23.1186 9.21427 23.1953 9.86691 23.1228C9.87317 23.1221 9.87944 23.1215 9.88572 23.121C10.5802 23.0714 11.6543 22.8451 12.5866 22.3381C13.5151 21.8332 14.2435 21.0869 14.4052 20.0086C14.7408 17.7713 13.6889 16.8043 13.1812 16.5598H6.87992C6.85316 16.5598 6.59738 16.5977 6.33855 17.0998ZM5.48528 16.6599C5.84511 15.9619 6.37334 15.5998 6.87992 15.5998H13.2799C13.3388 15.5998 13.3972 15.6107 13.4522 15.6318C14.3691 15.9845 15.7698 17.3831 15.3546 20.151C15.1323 21.6328 14.1274 22.5931 13.0452 23.1815C11.9711 23.7656 10.7625 24.0196 9.96347 24.0779C9.17604 24.1637 7.98848 24.0788 6.95948 23.522C5.89271 22.9447 5.03135 21.8751 4.9603 20.099C4.89453 18.4547 5.1234 17.3618 5.48528 16.6599Z" fill="#7395C6"/>
<path d="M17.4508 20.2398C17.5788 23.4398 20.4908 23.9198 21.9308 23.7598C23.4241 23.6532 26.5068 22.7998 26.8908 20.2398C27.2748 17.6798 25.9841 16.5065 25.2908 16.2398H18.8908C18.3574 16.2398 17.3228 17.0398 17.4508 20.2398Z" fill="#C0E8FF"/>
<path fill-rule="evenodd" clip-rule="evenodd" d="M18.3494 17.2598C18.0926 17.7579 17.8682 18.6649 17.9304 20.2206C17.9873 21.6445 18.646 22.4149 19.4272 22.8377C20.2421 23.2786 21.2251 23.3553 21.8778 23.2828C21.884 23.2821 21.8903 23.2815 21.8966 23.281C22.591 23.2314 23.6651 23.0051 24.5975 22.4981C25.526 21.9932 26.2543 21.2469 26.4161 20.1686C26.7517 17.9313 25.6998 16.9643 25.192 16.7198H18.8908C18.864 16.7198 18.6082 16.7577 18.3494 17.2598ZM17.4961 16.8199C17.856 16.1219 18.3842 15.7598 18.8908 15.7598H25.2908C25.3497 15.7598 25.4081 15.7707 25.4631 15.7918C26.38 16.1445 27.7807 17.5431 27.3655 20.311C27.1432 21.7928 26.1382 22.7531 25.0561 23.3415C23.982 23.9256 22.7733 24.1796 21.9743 24.2379C21.1869 24.3237 19.9993 24.2388 18.9703 23.682C17.9036 23.1047 17.0422 22.0351 16.9712 20.259C16.9054 18.6147 17.1343 17.5218 17.4961 16.8199Z" fill="#7395C6"/>
<path fill-rule="evenodd" clip-rule="evenodd" d="M13.3743 19.9928C13.5991 20.1333 13.6674 20.4294 13.5269 20.6542C12.7669 21.8703 11.5497 22.0673 10.9803 21.9961C10.7173 21.9632 10.5307 21.7233 10.5636 21.4603C10.5965 21.1972 10.8364 21.0106 11.0994 21.0435C11.3834 21.079 12.1929 20.9773 12.7128 20.1454C12.8533 19.9206 13.1495 19.8523 13.3743 19.9928Z" fill="white"/>
<path fill-rule="evenodd" clip-rule="evenodd" d="M25.3851 20.1528C25.6099 20.2933 25.6783 20.5894 25.5378 20.8142C24.7777 22.0303 23.5605 22.2273 22.9912 22.1561C22.7282 22.1232 22.5416 21.8833 22.5744 21.6203C22.6073 21.3572 22.8472 21.1706 23.1103 21.2035C23.3943 21.239 24.2038 21.1373 24.7237 20.3054C24.8642 20.0806 25.1603 20.0123 25.3851 20.1528Z" fill="white"/>
</svg>
