<svg xmlns="http://www.w3.org/2000/svg" viewBox="0 0 16 16"><path fill="#e8d47b" d="M13,4.5c-0.827,0-1.5-0.673-1.5-1.5s0.673-1.5,1.5-1.5c1.385,0,1.5,0.394,1.5,0.833 C14.5,3.239,13.744,4.5,13,4.5z"/><path fill="#ba9b48" d="M13,2c0.825,0,0.974,0.155,0.975,0.156C13.981,2.166,14,2.221,14,2.333C14,3.053,13.371,4,13,4 c-0.551,0-1-0.449-1-1S12.449,2,13,2 M13,1c-1.105,0-2,0.895-2,2s0.895,2,2,2s2-1.562,2-2.667S14.105,1,13,1L13,1z"/><path fill="#e8d47b" d="M3,4.5c-0.744,0-1.5-1.261-1.5-2.167C1.5,1.894,1.615,1.5,3,1.5c0.827,0,1.5,0.673,1.5,1.5 S3.827,4.5,3,4.5z"/><path fill="#ba9b48" d="M3,2c0.551,0,1,0.449,1,1S3.551,4,3,4C2.629,4,2,3.053,2,2.333c0-0.112,0.019-0.167,0.024-0.177 C2.026,2.155,2.175,2,3,2 M3,1C1.895,1,1,1.229,1,2.333S1.895,5,3,5s2-0.895,2-2S4.105,1,3,1L3,1z"/><path fill="#ffeea3" d="M8,10.5c-2.981,0-5.5-2.654-5.5-5.796V0.5h11v4.204C13.5,7.846,10.981,10.5,8,10.5z"/><path fill="#ba9b48" d="M13,1v3.705C13,7.525,10.664,10,8,10S3,7.525,3,4.705V1H13 M14,0H2v4.705C2,8.018,4.686,11,8,11 s6-2.982,6-6.295V0L14,0z"/><path fill="#ffeea3" d="M3 0H13V2H3z"/><path fill="#36404d" d="M10.25 2A.75.75 0 1 0 10.25 3.5.75.75 0 1 0 10.25 2zM5.75 2A.75.75 0 1 0 5.75 3.5.75.75 0 1 0 5.75 2z"/></svg>