<?xml version="1.0" encoding="UTF-8"?><svg id="a" xmlns="http://www.w3.org/2000/svg" viewBox="0 0 124.99 170.43"><defs><style>.b{fill:#e84f1d;}.c{fill:#f39719;}.d{fill:#c93b17;}</style></defs><path class="d" d="M118.45,37.05l6.37,72.64c2.43,27.81-24.58,48.9-50.97,39.78l-8.84-3.03c-28.66-9.91-35.19-47.52-11.51-66.49l57.48-46.07c.65-.52,1.43-.86,2.25-.97,.82-.11,1.67,0,2.43,.32,.77,.32,1.43,.85,1.92,1.52,.49,.67,.79,1.46,.87,2.29Z"/><path class="d" d="M6.72,36.74L.35,109.38c-2.44,27.81,24.59,48.9,50.97,39.78l8.84-3.05c28.66-9.9,35.18-47.52,11.52-66.49L14.2,33.55c-.65-.52-1.43-.86-2.26-.97-.83-.11-1.67,0-2.44,.33s-1.43,.86-1.92,1.53c-.49,.68-.79,1.47-.86,2.3Z"/><path class="b" d="M57.12,3.16L6.55,94.07c-19.05,34.26,5.71,76.36,44.9,76.36h22.07c39.19,0,63.95-42.11,44.9-76.36L67.87,3.16c-.53-.96-1.31-1.76-2.26-2.31-.94-.56-2.02-.85-3.12-.85s-2.17,.29-3.12,.85c-.94,.56-1.72,1.35-2.26,2.31Z"/><path class="c" d="M58.14,28.89L20.79,96.03c-35.2,82.23,118.6,82.23,83.39,0L66.84,28.89c-.43-.78-1.06-1.42-1.83-1.87-.76-.45-1.64-.69-2.53-.69s-1.76,.24-2.53,.69c-.77,.45-1.4,1.1-1.83,1.87Z"/></svg>