<svg width="32" height="32" viewBox="10 10 30 20" fill="none" xmlns="http://www.w3.org/2000/svg">
<path d="M13.5212 19.1966C9.81002 28.3252 16.3397 32.0005 21.0663 31.4193C31.8773 29.7346 27.589 18.9478 24.2274 15.2145L22.9747 18.0341C23.1285 11.1912 19.3911 8.64158 17.5032 8.22211C17.7937 11.7406 14.662 16.3907 13.5212 19.1966Z" fill="#F78F8F"/>
<path fill-rule="evenodd" clip-rule="evenodd" d="M17.1553 7.82327C17.2821 7.71272 17.4537 7.66901 17.6179 7.70548C19.5245 8.12911 22.7864 10.3593 23.4054 15.7613L23.7438 14.9996C23.8166 14.8358 23.9674 14.72 24.1444 14.6918C24.3214 14.6637 24.5006 14.7272 24.6206 14.8604C26.3644 16.7969 28.3431 20.5397 28.4902 24.063C28.5644 25.8398 28.1734 27.6022 27.0039 29.036C25.8334 30.471 23.9399 31.5071 21.1478 31.9421C21.1421 31.9431 21.1366 31.9438 21.1309 31.9445C18.6281 32.2523 15.6289 31.441 13.7334 29.2998C11.8053 27.122 11.1222 23.6925 13.0311 18.9973C13.3261 18.2716 13.7462 17.4348 14.1937 16.5533C14.2298 16.4821 14.2662 16.4107 14.3025 16.3389C14.722 15.5133 15.1635 14.6442 15.5674 13.7572C16.4544 11.8089 17.1088 9.87687 16.9758 8.26557C16.9619 8.09798 17.0286 7.9338 17.1553 7.82327ZM18.046 8.95621C17.9807 10.6582 17.3026 12.4999 16.5305 14.1958C16.1169 15.1043 15.6653 15.9932 15.2475 16.8156C15.2104 16.8883 15.1738 16.9606 15.1374 17.0323C14.6859 17.9218 14.2868 18.7185 14.0114 19.3958C12.2091 23.8291 12.9352 26.8017 14.5258 28.5983C16.1469 30.4294 18.7713 31.1657 20.9933 30.8951C23.6017 30.4872 25.2239 29.5439 26.1838 28.367C27.1457 27.1878 27.4995 25.7043 27.4329 24.1071C27.3128 21.2311 25.8312 18.1223 24.3645 16.2091L23.4583 18.2489C23.3559 18.4793 23.1051 18.6056 22.8591 18.5505C22.6131 18.4954 22.44 18.2743 22.4457 18.0222C22.5765 12.2018 19.8144 9.71438 18.046 8.95621Z" fill="#C74343"/>
<path d="M19.5345 19.0981C19.5345 19.0981 19.3946 19.0075 19.2099 19.0302C18.9321 19.0643 18.7339 19.3143 18.7676 19.5881C19.6369 22.5023 16.2357 23.9275 16.6626 27.3996C16.9321 29.591 18.9534 31.146 21.177 30.8726C23.4006 30.5991 24.985 28.6008 24.7155 26.4094C24.3679 23.5822 21.3767 20.1188 19.5345 19.0981Z" fill="#FFEEA3"/>
<path d="M25.3379 31.7876C25.3479 31.7915 25.3579 31.7953 25.368 31.799C27.8884 32.7072 30.0035 32.7302 31.7259 32.0301C33.4455 31.331 34.6164 29.9749 35.3772 28.4345C36.8732 25.4052 36.9241 21.3965 36.3522 18.9824C36.2741 18.6528 36.0345 18.3851 35.7154 18.2711C35.6121 18.2343 35.5051 18.2151 35.3984 18.2131C36.6061 14.068 35.0925 11.0922 33.7048 9.87726C33.4657 9.66793 33.1413 9.58472 32.831 9.65308C32.5206 9.72144 32.2613 9.93324 32.1322 10.2237C31.589 11.4464 30.3115 12.6448 28.7449 13.8188C28.0392 14.3476 27.3105 14.8465 26.6084 15.3272C26.5479 15.3686 26.4876 15.4098 26.4275 15.451C25.6834 15.9608 24.9588 16.4613 24.3826 16.9313C20.6748 19.9556 19.5906 23.1998 20.2386 26.0416C20.8659 28.7928 23.0621 30.8836 25.3379 31.7876Z" fill="#F78F8F" stroke="#3D3D3D" stroke-width="2" stroke-linejoin="round"/>
<path fill-rule="evenodd" clip-rule="evenodd" d="M32.9418 10.156C33.0924 10.1228 33.2497 10.1632 33.3658 10.2648C34.7132 11.4443 36.356 14.6735 34.4775 19.2914L35.0848 18.8275C35.2153 18.7278 35.3876 18.7009 35.5424 18.7561C35.6972 18.8114 35.8134 18.9413 35.8513 19.1013C36.4022 21.4263 36.3473 25.3077 34.9157 28.2067C34.1937 29.6687 33.1037 30.9145 31.5321 31.5533C29.9592 32.1928 27.9802 32.1932 25.5427 31.3148C25.5377 31.3131 25.5329 31.3113 25.528 31.3093C23.3793 30.4558 21.3235 28.4837 20.7406 25.9274C20.1477 23.3271 21.107 20.2678 24.7082 17.3305C25.2647 16.8765 25.9709 16.3882 26.7187 15.8759C26.779 15.8346 26.8397 15.7931 26.9005 15.7513C27.6012 15.2717 28.3387 14.7668 29.0538 14.2309C30.6245 13.0539 32.0009 11.7875 32.6028 10.4328C32.6654 10.2919 32.7912 10.1892 32.9418 10.156ZM33.1599 11.4592C32.3586 12.7996 31.0029 13.9829 29.6357 15.0075C28.9032 15.5564 28.1489 16.0727 27.451 16.5505C27.3892 16.5927 27.3279 16.6348 27.2671 16.6764C26.5125 17.1933 25.841 17.6587 25.3215 18.0823C21.9212 20.8558 21.1976 23.5665 21.6867 25.7116C22.1852 27.8978 23.9725 29.6447 25.879 30.4046C28.1568 31.2239 29.8768 31.1788 31.1667 30.6544C32.4593 30.1289 33.3966 29.0912 34.0456 27.777C35.2143 25.4106 35.3901 22.2579 35.0519 20.0736L33.4256 21.3158C33.2418 21.4561 32.9845 21.4474 32.8108 21.2948C32.6372 21.1422 32.5953 20.8883 32.7107 20.688C35.3765 16.0633 34.249 12.8471 33.1599 11.4592Z" fill="#C74343"/>
<path d="M29.8954 20.2727C29.8954 20.2727 29.8227 20.1382 29.6642 20.0753C29.4257 19.9805 29.1563 20.0944 29.0629 20.3295C28.4801 23.0563 25.117 22.7064 23.9329 25.6874C23.1856 27.5688 24.1276 29.7089 26.0366 30.4672C27.9457 31.2256 30.0994 30.315 30.8467 28.4336C31.8109 26.0063 30.9283 21.9042 29.8954 20.2727Z" fill="#FFEEA3"/>
</svg>
