<svg width="46" height="39" viewBox="0 0 46 39" fill="none" xmlns="http://www.w3.org/2000/svg">
<path d="M14.4271 6.91369C14.4092 6.87849 14.3905 6.81491 14.3809 6.76652C14.3094 6.40553 14.5444 6.05453 14.9054 5.98304C15.0591 5.95261 15.1784 5.98879 15.2235 5.99685C16.0852 6.15106 22.09 7.65317 22.3027 15.3919C23.9269 13.9156 22.8402 11.8874 23.4431 11.768C23.6701 11.7231 23.779 11.7892 23.9569 11.9599C26.546 14.4402 28.7537 17.5716 29.39 20.7846C30.4628 26.202 26.9405 31.4638 21.5231 32.5367C15.5661 33.7163 10.7199 29.4614 9.77097 24.6698C8.19268 16.6999 17.2942 13.3683 14.4271 6.91369Z" fill="#FF5A5A"/>
<path d="M18.1934 17.0308C18.1934 17.0308 18.0009 16.9235 17.7609 16.971C17.3999 17.0425 17.1649 17.3935 17.2364 17.7545C18.6674 21.5488 14.3487 23.7633 15.2552 28.341C15.8274 31.2303 18.6338 33.1089 21.523 32.5367C24.4122 31.9646 26.2908 29.1582 25.7187 26.2689C24.9805 22.5413 20.7115 18.2155 18.1934 17.0308Z" fill="#FFD246"/>
<g clip-path="url(#clip0_962_387)">
<path d="M31.4142 11.0071L31.4143 11.0072C31.7423 11.2528 32.9104 12.2452 33.6484 13.94C34.2339 15.2843 34.5373 17.0469 33.9699 19.1827C34.0128 19.0953 34.0521 19.0092 34.0914 18.9231L34.0955 18.9141C34.143 18.8099 34.1954 18.6949 34.2497 18.596C34.3014 18.5018 34.3834 18.3665 34.5093 18.2636C34.6637 18.1374 34.8802 18.0653 35.1196 18.1316C35.2755 18.1747 35.4322 18.251 35.5594 18.3982C35.6705 18.5268 35.7261 18.6748 35.7611 18.7736L31.4142 11.0071ZM31.4142 11.0071C31.423 11.0137 31.2586 10.8648 31.0216 10.7992C30.4666 10.6455 29.8917 10.971 29.7381 11.526C29.723 11.5806 29.702 11.6752 29.6999 11.7676M31.4142 11.0071L29.6999 11.7676M29.6999 11.7676C29.5742 14.331 27.8115 15.4179 25.5668 16.7244C25.53 16.7458 25.4931 16.7673 25.4561 16.7888C23.2829 18.0529 20.7641 19.518 19.836 22.8698C18.7111 26.9323 20.7912 32.1045 25.8604 33.5081C30.4616 34.7822 35.2247 32.0848 36.4988 27.4836C37.2493 24.7732 36.7553 21.5733 35.7612 18.7738C35.7612 18.7739 35.7612 18.7739 35.7613 18.774L29.6999 11.7676Z" fill="#FF5A5A" stroke="#292929"/>
<path d="M29.2412 20.5237C29.2412 20.5237 29.1403 20.3752 28.9483 20.322C28.6594 20.2421 28.3601 20.4116 28.2801 20.7004C27.934 23.9852 23.9811 24.0175 22.9668 27.6806C22.3266 29.9925 23.682 32.386 25.994 33.0262C28.306 33.6664 30.6995 32.3109 31.3396 29.999C32.1655 27.0162 30.6406 22.3068 29.2412 20.5237Z" fill="#FFD246"/>
</g>
<defs>
<clipPath id="clip0_962_387">
<rect width="26.0637" height="26.0637" fill="white" transform="translate(19.9551 6) rotate(15.4771)"/>
</clipPath>
</defs>
</svg>
