<svg width="32" height="32" viewBox="0 0 32 32" fill="none" xmlns="http://www.w3.org/2000/svg">
<path d="M10.3953 14.72C6.04333 22.528 11.5154 26.56 15.8353 26.56C25.7554 26.24 23.0887 16.0534 20.4754 12.32L19.0354 14.72C19.9314 8.57605 16.8487 5.86672 15.1954 5.28005C15.0674 8.48005 11.733 12.32 10.3953 14.72Z" fill="#F78F8F"/>
<path fill-rule="evenodd" clip-rule="evenodd" d="M14.9263 4.88252C15.0527 4.79703 15.2121 4.77668 15.3559 4.82769C17.0256 5.42018 19.7155 7.78924 19.6748 12.7214L20.0638 12.0731C20.1474 11.9337 20.296 11.8461 20.4585 11.8403C20.621 11.8346 20.7753 11.9116 20.8686 12.0448C22.2242 13.9814 23.5914 17.5703 23.3338 20.7587C23.2039 22.3667 22.6567 23.9102 21.445 25.0716C20.2323 26.234 18.4128 26.9572 15.8508 27.0398C15.8456 27.04 15.8405 27.0401 15.8353 27.0401C13.5479 27.0401 10.9374 25.9776 9.46781 23.84C7.97295 21.6657 7.73762 18.5024 9.97606 14.4864C10.322 13.8657 10.7929 13.1588 11.2934 12.4147C11.3338 12.3546 11.3744 12.2943 11.4151 12.2337C11.8842 11.5368 12.3779 10.8032 12.8397 10.0493C13.854 8.39338 14.6571 6.72632 14.7157 5.26087C14.7218 5.10845 14.8 4.96801 14.9263 4.88252ZM15.6028 6.00116C15.3556 7.52629 14.5412 9.10939 13.6583 10.5508C13.1853 11.323 12.6803 12.0733 12.2131 12.7675C12.1717 12.8289 12.1307 12.8899 12.09 12.9504C11.585 13.7013 11.1375 14.3744 10.8146 14.9537C8.70104 18.7457 9.02573 21.5024 10.2589 23.2961C11.5157 25.1242 13.7971 26.0776 15.8276 26.08C18.2212 26.0015 19.7862 25.3318 20.7807 24.3785C21.7773 23.4233 22.2601 22.1268 22.3769 20.6814C22.5872 18.0787 21.5974 15.1157 20.4887 13.2308L19.447 14.967C19.3293 15.1631 19.0895 15.249 18.8741 15.1722C18.6587 15.0953 18.5274 14.8771 18.5604 14.6508C19.3225 9.42491 17.1111 6.87956 15.6028 6.00116Z" fill="#C74343"/>
<path d="M15.8201 15.2971C15.8201 15.2971 15.7042 15.2 15.5354 15.2C15.2815 15.2 15.0754 15.4031 15.0754 15.6534C15.5354 18.3734 12.3154 19.28 12.3154 22.4534C12.3154 24.4562 13.9631 26.08 15.9954 26.08C18.0277 26.08 19.6754 24.4562 19.6754 22.4534C19.6754 19.8694 17.3657 16.42 15.8201 15.2971Z" fill="#FFEEA3"/>
</svg>
