<svg width="32" height="32" viewBox="0 0 32 32" fill="none" xmlns="http://www.w3.org/2000/svg">
<path d="M7.83991 19.0399V7.03994C7.83991 6.14394 9.11991 5.91994 9.75991 5.91994H21.4399C23.7439 5.91994 23.8399 7.03994 23.8399 7.03994V19.0399H27.1999C27.1999 21.3866 24.9599 25.7599 16.1599 25.7599C7.3242 25.7599 4.79991 21.2266 4.63991 19.0399H7.83991Z" fill="#66798F"/>
<path fill-rule="evenodd" clip-rule="evenodd" d="M8.37404 5.70139C8.85146 5.50087 9.39989 5.43994 9.75991 5.43994H21.4399C22.6657 5.43994 23.3961 5.73827 23.8245 6.12271C24.037 6.31339 24.1601 6.51256 24.2301 6.67586C24.2648 6.75675 24.2859 6.82765 24.2988 6.88305C24.3053 6.91076 24.3097 6.93469 24.3127 6.95417C24.3142 6.96392 24.3153 6.97258 24.3162 6.98006L24.3174 6.9904L24.3178 6.9949L24.318 6.99698L24.3181 6.99798C24.3181 6.99847 24.3182 6.99895 23.8399 7.03994L24.3182 6.99895C24.3193 7.01258 24.3199 7.02626 24.3199 7.03994V18.5599H27.1999C27.465 18.5599 27.6799 18.7748 27.6799 19.0399C27.6799 20.3567 27.0559 22.1712 25.2876 23.6483C23.5176 25.1269 20.6371 26.2399 16.1599 26.2399C7.13927 26.2399 4.34404 21.5738 4.16119 19.075C4.15146 18.9419 4.19752 18.8109 4.28834 18.7131C4.37915 18.6154 4.50652 18.5599 4.63991 18.5599H7.35991V7.03994C7.35991 6.30423 7.90303 5.89921 8.37404 5.70139ZM23.3599 7.08667C23.3574 7.07847 23.3535 7.0674 23.3477 7.05402C23.3277 7.00733 23.2828 6.92649 23.1833 6.83718C22.9877 6.66161 22.5181 6.39994 21.4399 6.39994H9.75991C9.47993 6.39994 9.06837 6.45101 8.74578 6.58649C8.4168 6.72467 8.31991 6.87965 8.31991 7.03994V19.0399C8.31991 19.305 8.10501 19.5199 7.83991 19.5199H5.19898C5.67395 21.5796 8.2272 25.2799 16.1599 25.2799C20.4828 25.2799 23.1222 24.2063 24.6722 22.9116C25.9981 21.804 26.5532 20.5144 26.6867 19.5199H23.8399C23.5748 19.5199 23.3599 19.305 23.3599 19.0399V7.08667Z" fill="#36404D"/>
<path d="M8.15991 21.2799V18.2399H23.3599V21.2799C18.6239 22.8159 12.3199 22.5599 8.15991 21.2799Z" fill="#DCD5F2"/>
<path fill-rule="evenodd" clip-rule="evenodd" d="M7.67991 18.2399C7.67991 17.9748 7.89482 17.7599 8.15991 17.7599H23.3599C23.625 17.7599 23.8399 17.9748 23.8399 18.2399V21.2799C23.8399 21.488 23.7059 21.6723 23.508 21.7365C18.6661 23.3069 12.2602 23.0438 8.01875 21.7387C7.81735 21.6767 7.67991 21.4907 7.67991 21.2799V18.2399ZM8.63991 18.7199V20.9217C12.6178 22.06 18.4173 22.2739 22.8799 20.9272V18.7199H8.63991Z" fill="#8B75A1"/>
</svg>
