<svg width="32" height="32" viewBox="0 0 32 32" fill="none" xmlns="http://www.w3.org/2000/svg">
<path d="M11.3297 3.72241L3.7189 6.33466V28.2775L11.3297 25.4911L20.8432 28.2775L28.2811 25.4911V3.72241L20.8432 6.33466L11.3297 3.72241Z" fill="#FFEEA3"/>
<path fill-rule="evenodd" clip-rule="evenodd" d="M28.5815 3.29646C28.7185 3.39445 28.8 3.55319 28.8 3.7224V25.4911C28.8 25.7094 28.6652 25.9046 28.462 25.9808L21.0242 28.7671C20.9196 28.8063 20.8053 28.8105 20.6982 28.7792L11.3476 26.0405L3.89621 28.7685C3.73712 28.8267 3.55982 28.8032 3.42117 28.7054C3.28252 28.6076 3.19995 28.4479 3.19995 28.2775V6.33465C3.19995 6.11108 3.34125 5.91228 3.55143 5.84014L11.1622 3.2279C11.2603 3.19423 11.3662 3.19091 11.4662 3.21836L20.8243 5.78794L28.1101 3.22911C28.2688 3.17337 28.4445 3.19847 28.5815 3.29646ZM11.3466 4.26858L4.23779 6.70851V27.5316L11.1523 25.0001C11.2559 24.9622 11.3688 24.9585 11.4746 24.9895L20.8232 27.7275L27.7621 25.1281V4.45798L21.0141 6.82794C20.9151 6.86273 20.8079 6.86648 20.7067 6.83869L11.3466 4.26858Z" fill="#BA9B48"/>
<path d="M20.8432 6.85712L11.3296 4.24487V24.9687L20.8432 27.7551V6.85712Z" fill="#FEFFFF"/>
<path d="M14.2702 9.6435C14.2702 10.6053 13.4957 11.385 12.5404 11.385C11.5851 11.385 10.8107 10.6053 10.8107 9.6435C10.8107 8.6817 11.5851 7.902 12.5404 7.902C13.4957 7.902 14.2702 8.6817 14.2702 9.6435Z" fill="#8BB7F0"/>
<path fill-rule="evenodd" clip-rule="evenodd" d="M12.5404 10.6884C13.1136 10.6884 13.5783 10.2206 13.5783 9.6435C13.5783 9.06642 13.1136 8.5986 12.5404 8.5986C11.9672 8.5986 11.5026 9.06642 11.5026 9.6435C11.5026 10.2206 11.9672 10.6884 12.5404 10.6884ZM12.5404 11.385C13.4957 11.385 14.2702 10.6053 14.2702 9.6435C14.2702 8.6817 13.4957 7.902 12.5404 7.902C11.5851 7.902 10.8107 8.6817 10.8107 9.6435C10.8107 10.6053 11.5851 11.385 12.5404 11.385Z" fill="#4E7AB5"/>
<path d="M26.0325 18.6993C26.0325 19.6611 25.258 20.4408 24.3027 20.4408C23.3474 20.4408 22.573 19.6611 22.573 18.6993C22.573 17.7375 23.3474 16.9578 24.3027 16.9578C25.258 16.9578 26.0325 17.7375 26.0325 18.6993Z" fill="#8BB7F0"/>
<path fill-rule="evenodd" clip-rule="evenodd" d="M24.3027 19.7442C24.8759 19.7442 25.3406 19.2763 25.3406 18.6993C25.3406 18.1222 24.8759 17.6544 24.3027 17.6544C23.7295 17.6544 23.2649 18.1222 23.2649 18.6993C23.2649 19.2763 23.7295 19.7442 24.3027 19.7442ZM24.3027 20.4408C25.258 20.4408 26.0325 19.6611 26.0325 18.6993C26.0325 17.7375 25.258 16.9578 24.3027 16.9578C23.3474 16.9578 22.573 17.7375 22.573 18.6993C22.573 19.6611 23.3474 20.4408 24.3027 20.4408Z" fill="#4E7AB5"/>
<path d="M9.77289 21.834C9.77289 22.7958 8.99846 23.5755 8.04316 23.5755C7.08785 23.5755 6.31343 22.7958 6.31343 21.834C6.31343 20.8722 7.08785 20.0925 8.04316 20.0925C8.99846 20.0925 9.77289 20.8722 9.77289 21.834Z" fill="#8BB7F0"/>
<path fill-rule="evenodd" clip-rule="evenodd" d="M8.04316 22.8789C8.61634 22.8789 9.081 22.4111 9.081 21.834C9.081 21.2569 8.61634 20.7891 8.04316 20.7891C7.46998 20.7891 7.00532 21.2569 7.00532 21.834C7.00532 22.4111 7.46998 22.8789 8.04316 22.8789ZM8.04316 23.5755C8.99846 23.5755 9.77289 22.7958 9.77289 21.834C9.77289 20.8722 8.99846 20.0925 8.04316 20.0925C7.08785 20.0925 6.31343 20.8722 6.31343 21.834C6.31343 22.7958 7.08785 23.5755 8.04316 23.5755Z" fill="#4E7AB5"/>
<path d="M9.77284 10.5143C9.77284 10.9952 9.38563 11.385 8.90798 11.385C8.43033 11.385 8.04312 10.9952 8.04312 10.5143C8.04312 10.0334 8.43033 9.64351 8.90798 9.64351C9.38563 9.64351 9.77284 10.0334 9.77284 10.5143Z" fill="#704E34"/>
<path d="M17.3838 8.77275C17.3838 9.25365 16.9966 9.6435 16.5189 9.6435C16.0413 9.6435 15.6541 9.25365 15.6541 8.77275C15.6541 8.29185 16.0413 7.902 16.5189 7.902C16.9966 7.902 17.3838 8.29185 17.3838 8.77275Z" fill="#704E34"/>
<path d="M20.1514 8.77275C20.1514 9.25365 19.7641 9.6435 19.2865 9.6435C18.8088 9.6435 18.4216 9.25365 18.4216 8.77275C18.4216 8.29185 18.8088 7.902 19.2865 7.902C19.7641 7.902 20.1514 8.29185 20.1514 8.77275Z" fill="#704E34"/>
<path d="M22.9189 9.46933C22.9189 9.95023 22.5317 10.3401 22.0541 10.3401C21.5764 10.3401 21.1892 9.95023 21.1892 9.46933C21.1892 8.98843 21.5764 8.59858 22.0541 8.59858C22.5317 8.59858 22.9189 8.98843 22.9189 9.46933Z" fill="#704E34"/>
<path d="M25.6865 11.5591C25.6865 12.04 25.2993 12.4298 24.8217 12.4298C24.344 12.4298 23.9568 12.04 23.9568 11.5591C23.9568 11.0782 24.344 10.6883 24.8217 10.6883C25.2993 10.6883 25.6865 11.0782 25.6865 11.5591Z" fill="#704E34"/>
<path d="M26.3783 14.3455C26.3783 14.8264 25.9911 15.2163 25.5134 15.2163C25.0358 15.2163 24.6486 14.8264 24.6486 14.3455C24.6486 13.8646 25.0358 13.4748 25.5134 13.4748C25.9911 13.4748 26.3783 13.8646 26.3783 14.3455Z" fill="#704E34"/>
<path d="M22.5728 21.3115C22.5728 21.7924 22.1856 22.1823 21.708 22.1823C21.2303 22.1823 20.8431 21.7924 20.8431 21.3115C20.8431 20.8306 21.2303 20.4408 21.708 20.4408C22.1856 20.4408 22.5728 20.8306 22.5728 21.3115Z" fill="#704E34"/>
<path d="M19.8053 20.6149C19.8053 21.0958 19.4181 21.4857 18.9404 21.4857C18.4628 21.4857 18.0755 21.0958 18.0755 20.6149C18.0755 20.134 18.4628 19.7442 18.9404 19.7442C19.4181 19.7442 19.8053 20.134 19.8053 20.6149Z" fill="#704E34"/>
<path d="M17.3838 18.1769C17.3838 18.6578 16.9966 19.0476 16.5189 19.0476C16.0413 19.0476 15.6541 18.6578 15.6541 18.1769C15.6541 17.696 16.0413 17.3061 16.5189 17.3061C16.9966 17.3061 17.3838 17.696 17.3838 18.1769Z" fill="#704E34"/>
<path d="M14.6162 17.1319C14.6162 17.6128 14.229 18.0027 13.7513 18.0027C13.2737 18.0027 12.8865 17.6128 12.8865 17.1319C12.8865 16.651 13.2737 16.2612 13.7513 16.2612C14.229 16.2612 14.6162 16.651 14.6162 17.1319Z" fill="#704E34"/>
<path d="M11.5027 18.8734C11.5027 19.3543 11.1155 19.7442 10.6379 19.7442C10.1602 19.7442 9.773 19.3543 9.773 18.8734C9.773 18.3925 10.1602 18.0027 10.6379 18.0027C11.1155 18.0027 11.5027 18.3925 11.5027 18.8734Z" fill="#704E34"/>
</svg>
