<svg xmlns="http://www.w3.org/2000/svg" viewBox="0 0 16 16"><g id="Office_x5F_16"><path fill="#f5ce85" stroke="#ba9b48" d="M9,8.5H7C6.172,8.5,5.5,7.828,5.5,7v0c0-0.828,0.672-1.5,1.5-1.5h2c0.828,0,1.5,0.672,1.5,1.5v0 C10.5,7.828,9.828,8.5,9,8.5z"/><path fill="#bae0bd" stroke="#5e9c76" d="M11,11.5H5c-0.828,0-1.5-0.672-1.5-1.5v0c0-0.828,0.672-1.5,1.5-1.5h6c0.828,0,1.5,0.672,1.5,1.5v0 C12.5,10.828,11.828,11.5,11,11.5z"/><path fill="#8bb7f0" stroke="#4e7ab5" stroke-width="1.065" d="M13,14.5H3c-0.828,0-1.5-0.672-1.5-1.5v0c0-0.828,0.672-1.5,1.5-1.5h10c0.828,0,1.5,0.672,1.5,1.5v0 C14.5,13.828,13.828,14.5,13,14.5z"/><circle cx="8" cy="3.5" r="1.993" fill="#f78f8f" stroke="#c74343"/></g></svg>