<svg width="16" height="16" viewBox="0 0 16 16" fill="none" xmlns="http://www.w3.org/2000/svg">
<g clip-path="url(#clip0_905_372)">
<path d="M3.5001 13.4001C3.4001 13.4001 1.3001 12.6001 0.600098 10.5001C0.700098 10.5001 0.800098 10.4001 0.900098 10.4001C2.5001 9.9001 4.8001 9.2001 4.8001 6.0001C4.8001 5.6001 4.7001 5.2001 4.7001 4.8001C4.6001 4.3001 4.6001 3.7001 4.7001 3.6001C4.7001 3.6001 4.8001 3.5001 4.9001 3.5001C5.9001 3.5001 8.7001 2.8001 9.5001 2.4001C10.0001 2.2001 10.5001 1.9001 11.0001 1.6001C11.9001 1.1001 12.8001 0.600098 13.5001 0.600098C13.8001 0.600098 14.1001 0.700098 14.5001 1.2001L15.0001 2.2001L12.4001 5.6001C10.6001 7.9001 8.9001 9.2001 8.9001 9.2001L6.7001 11.4001L4.5001 14.0001L3.5001 13.4001Z" fill="#F5CE85"/>
<path d="M13.4 1.19995C13.5 1.19995 13.7 1.19995 13.9 1.59995L14.3 2.19995L12 5.29995C10.3 7.49995 8.6 8.79995 8.5 8.79995H8.4L8.5 8.89995L6.3 11.1L4.5 13.3L3.8 13H3.7H3.6C3.6 13 2 12.5 1.2 10.9C2.7 10.4 5.3 9.49995 5.2 6.09995C5.2 5.59995 5.1 5.19995 5.1 4.79995C5.1 4.59995 5 4.29995 5 4.09995C6.3 3.99995 8.8 3.29995 9.5 2.99995C10 2.79995 10.6 2.49995 11.1 2.19995C12 1.59995 12.8 1.19995 13.4 1.19995ZM13.4 0.199951C12.2 0.199951 10.6 1.39995 9.2 1.99995C8.4 2.29995 5.7 2.99995 4.7 2.99995C3.6 3.09995 4.2 4.59995 4.3 5.99995C4.3 9.29995 1.5 9.59995 0 10.2C0.6 13 3.3 13.9 3.3 13.9L4.6 14.7L7 11.8L9.2 9.59995C9.2 9.59995 11 8.29995 12.8 5.89995C14.6 3.49995 15.6 2.19995 15.6 2.19995L14.8 0.999951C14.4 0.399951 13.9 0.199951 13.4 0.199951Z" fill="#967A44"/>
<path d="M3.80005 13.8001C4.70005 13.1001 6.70005 11.5001 8.20005 9.6001C10.2 8.2001 12.7 5.5001 15 2.1001L15.4 2.5001C15 3.0001 14.2 4.2001 12.9 5.9001C11.4 7.9001 10 9.2001 9.70005 9.6001L8.30005 9.8001L6.40005 11.8001L7.10005 12.5001L4.70005 14.7001L3.80005 13.8001Z" fill="#A6714E"/>
<path d="M6.3 12.4L4.7 14L4.6 13.9C5 13.5 5.6 13 6.3 12.4ZM14.9 1.30005C12.1 5.50005 9.6 8.10005 7.8 9.30005C6 11.7 3 13.8 3 13.8L4.6 15.4L7.8 12.5L7 11.8L8.5 10.3L9.9 10C9.9 10 11.4 8.60005 13.3 6.20005C15.1 3.80005 16 2.50005 16 2.50005L14.9 1.30005Z" fill="#7A4F34"/>
<path d="M6.5 4C6.36739 4 6.24021 4.05268 6.14645 4.14645C6.05268 4.24021 6 4.36739 6 4.5C6 4.63261 6.05268 4.75979 6.14645 4.85355C6.24021 4.94732 6.36739 5 6.5 5C6.63261 5 6.75979 4.94732 6.85355 4.85355C6.94732 4.75979 7 4.63261 7 4.5C7 4.36739 6.94732 4.24021 6.85355 4.14645C6.75979 4.05268 6.63261 4 6.5 4Z" fill="#967A44"/>
<path d="M8.30005 3.69995C8.16744 3.69995 8.04026 3.75263 7.9465 3.8464C7.85273 3.94017 7.80005 4.06734 7.80005 4.19995C7.80005 4.33256 7.85273 4.45974 7.9465 4.5535C8.04026 4.64727 8.16744 4.69995 8.30005 4.69995C8.43266 4.69995 8.55983 4.64727 8.6536 4.5535C8.74737 4.45974 8.80005 4.33256 8.80005 4.19995C8.80005 4.06734 8.74737 3.94017 8.6536 3.8464C8.55983 3.75263 8.43266 3.69995 8.30005 3.69995Z" fill="#967A44"/>
<path d="M9.8999 3.1001C9.83424 3.1001 9.76922 3.11303 9.70856 3.13816C9.6479 3.16329 9.59278 3.20012 9.54635 3.24654C9.49992 3.29297 9.46309 3.34809 9.43796 3.40876C9.41284 3.46942 9.3999 3.53444 9.3999 3.6001C9.3999 3.66576 9.41284 3.73078 9.43796 3.79144C9.46309 3.8521 9.49992 3.90722 9.54635 3.95365C9.59278 4.00008 9.6479 4.03691 9.70856 4.06204C9.76922 4.08716 9.83424 4.1001 9.8999 4.1001C9.96556 4.1001 10.0306 4.08716 10.0912 4.06204C10.1519 4.03691 10.207 4.00008 10.2535 3.95365C10.2999 3.90722 10.3367 3.8521 10.3618 3.79144C10.387 3.73078 10.3999 3.66576 10.3999 3.6001C10.3999 3.53444 10.387 3.46942 10.3618 3.40876C10.3367 3.34809 10.2999 3.29297 10.2535 3.24654C10.207 3.20012 10.1519 3.16329 10.0912 3.13816C10.0306 3.11303 9.96556 3.1001 9.8999 3.1001Z" fill="#967A44"/>
</g>
<defs>
<clipPath id="clip0_905_372">
<rect width="16" height="16" fill="white"/>
</clipPath>
</defs>
</svg>
