<svg width="32" height="33" viewBox="0 0 32 33" fill="none" xmlns="http://www.w3.org/2000/svg">
<path d="M31.334 17.834L23.262 15.2394L20.6673 7.16669L20 17.1667L10 17.834L18.0727 20.4287L20.6673 28.5014L21.3333 18.5L31.334 17.834Z" fill="#61A85F"/>
<path d="M20.6673 28.5013L23.262 20.4286L31.334 17.834L20.6666 17.8333L20.6673 28.5013Z" fill="#92C68F"/>
<path d="M20.6673 7.16669L18.0727 15.2394L10 17.834L20.6667 17.8334L20.6673 7.16669Z" fill="#92C68F"/>
<path d="M16 9.16799L10.5 7.33466L8.66671 1.83466L8.00004 8.49999L1.33337 9.16799L6.83337 11.0013L8.66671 16.5013L9.33337 9.83332L16 9.16799Z" fill="#61A85F"/>
<path d="M8.66671 1.83466L6.83337 7.33466L1.33337 9.16799L8.66671 9.16666V1.83466Z" fill="#92C68F"/>
<path d="M8.66663 16.5014L10.5 11.0014L16 9.16802L8.66663 9.16669V16.5014Z" fill="#92C68F"/>
<path d="M12.668 25.166L8.16729 23.666L6.66729 19.1667L5.99996 24.5L0.666626 25.166L5.16729 26.666L6.66729 31.1654L7.33329 25.8334L12.668 25.166Z" fill="#61A85F"/>
<path d="M6.66736 31.1653L8.16736 26.666L12.668 25.166H6.66736V31.1653Z" fill="#92C68F"/>
<path d="M0.666626 25.166L5.16729 23.666L6.66729 19.1667V25.166H0.666626Z" fill="#92C68F"/>
</svg>
