<svg width="31" height="31" viewBox="0 0 31 31" fill="none" xmlns="http://www.w3.org/2000/svg">
<g clip-path="url(#clip0_942_528)">
<path d="M19.5869 23H22.9999V10C22.9999 8.34601 21.6539 7.00001 19.9999 7.00001C18.3459 7.00001 16.9999 8.34601 16.9999 10V21C16.9999 24.309 14.3089 27 10.9999 27C7.69091 27 4.99991 24.309 4.99991 21V8.00001H1.58691L6.49991 2.26801L11.4129 8.00001H7.99991V21C7.99991 22.654 9.34591 24 10.9999 24C12.6539 24 13.9999 22.654 13.9999 21V10C13.9999 6.69101 16.6909 4.00001 19.9999 4.00001C23.3089 4.00001 25.9999 6.69101 25.9999 10V23H29.4129L24.4999 28.732L19.5869 23Z" fill="#FFE685"/>
<path d="M6.5 3.037L10.326 7.5H8.5H7.5V8.5V21C7.5 22.93 9.07 24.5 11 24.5C12.93 24.5 14.5 22.93 14.5 21V10C14.5 6.967 16.967 4.5 20 4.5C23.033 4.5 25.5 6.967 25.5 10V22.5V23.5H26.5H28.326L24.5 27.963L20.674 23.5H22.5H23.5V22.5V10C23.5 8.07 21.93 6.5 20 6.5C18.07 6.5 16.5 8.07 16.5 10V21C16.5 24.033 14.033 26.5 11 26.5C7.967 26.5 5.5 24.033 5.5 21V8.5V7.5H4.5H2.674L6.5 3.037ZM6.5 1.5L0.5 8.5H4.5V21C4.5 24.584 7.416 27.5 11 27.5C14.584 27.5 17.5 24.584 17.5 21V10C17.5 8.622 18.622 7.5 20 7.5C21.378 7.5 22.5 8.622 22.5 10V22.5H18.5L24.5 29.5L30.5 22.5H26.5V10C26.5 6.416 23.584 3.5 20 3.5C16.416 3.5 13.5 6.416 13.5 10V21C13.5 22.378 12.378 23.5 11 23.5C9.622 23.5 8.5 22.378 8.5 21V8.5H12.5L6.5 1.5Z" fill="#FF9900"/>
</g>
<defs>
<clipPath id="clip0_942_528">
<rect width="30" height="30" fill="white" transform="translate(0.5 0.5)"/>
</clipPath>
</defs>
</svg>
