<svg width="32" height="32" viewBox="0 0 32 32" fill="none" xmlns="http://www.w3.org/2000/svg">
<path d="M22.2623 9.59995C22.2623 13.1346 19.3969 16 15.8623 16C12.3277 16 9.46232 13.1346 9.46232 9.59995C9.46232 6.06533 12.3277 3.19995 15.8623 3.19995C19.3969 3.19995 22.2623 6.06533 22.2623 9.59995Z" fill="#FFEEA3"/>
<path fill-rule="evenodd" clip-rule="evenodd" d="M15.8623 14.9621C18.8238 14.9621 21.2245 12.5614 21.2245 9.59995C21.2245 6.63851 18.8238 4.23779 15.8623 4.23779C12.9009 4.23779 10.5002 6.63851 10.5002 9.59995C10.5002 12.5614 12.9009 14.9621 15.8623 14.9621ZM15.8623 16C19.3969 16 22.2623 13.1346 22.2623 9.59995C22.2623 6.06533 19.3969 3.19995 15.8623 3.19995C12.3277 3.19995 9.46232 6.06533 9.46232 9.59995C9.46232 13.1346 12.3277 16 15.8623 16Z" fill="#BA9B48"/>
<path d="M27.4515 28.281H4.79203C3.82338 23.8529 9.34698 21.1315 12.2299 20.3243H20.1866C26.6904 21.8465 27.7398 26.263 27.4515 28.281Z" fill="#C2E9FF"/>
<path fill-rule="evenodd" clip-rule="evenodd" d="M12.09 19.8246C12.1355 19.8119 12.1826 19.8054 12.2299 19.8054H20.1867C20.2265 19.8054 20.2661 19.81 20.3049 19.8191C23.6656 20.6056 25.6743 22.1567 26.7968 23.8274C27.9107 25.485 28.1267 27.2239 27.9652 28.3545C27.9287 28.6101 27.7098 28.8 27.4515 28.8H4.79206C4.5482 28.8 4.33724 28.6302 4.28513 28.392C3.74138 25.9063 5.04387 23.939 6.7367 22.5444C8.42868 21.1504 10.6023 20.2412 12.09 19.8246ZM12.302 20.8433C10.9095 21.2423 8.92008 22.0903 7.39661 23.3454C5.95878 24.5299 5.0152 26.0016 5.22944 27.7622H26.9737C26.9957 26.8698 26.7528 25.6227 25.9354 24.4062C24.9853 22.9922 23.2332 21.5827 20.1263 20.8433H12.302Z" fill="#7496C4"/>
</svg>
