<svg xmlns="http://www.w3.org/2000/svg" viewBox="0 0 16 16"><path fill="#ffeea3" d="M12.5,13c0,1.4-1.1,2.5-2.5,2.5H6.6c-0.6,0-1.1-0.2-1.5-0.7l-4.2-4.2c-0.2-0.2-0.4-0.5-0.4-0.9 s0.1-0.6,0.4-0.9c0.5-0.5,1.3-0.5,1.8,0l1.9,1.9V2.5c0-0.6,0.4-1,1-1c0.1,0,0.3,0,0.4,0.1l0.5,0.2l0.1-0.5c0.1-0.4,0.5-0.7,1-0.7 c0.2,0,0.5,0.1,0.7,0.3l0.3,0.3l0.3-0.3C9,0.6,9.3,0.5,9.5,0.5c0.6,0,1,0.4,1,1v1.3l0.7-0.2c0.1,0,0.2-0.1,0.3-0.1c0.6,0,1,0.4,1,1 V13z"/><path fill="#ba9b48" d="M1,9.8c0-0.2,0.1-0.4,0.2-0.6C1.4,9.1,1.6,9,1.8,9C2,9,2.1,9.1,2.3,9.2l1,1L5,11.9V9.5V7V2.5 C5,2.2,5.2,2,5.5,2c0.1,0,0.1,0,0.2,0l1,0.4L7,1.4C7.1,1.2,7.3,1,7.5,1c0.2,0,0.3,0.1,0.3,0.1l0.7,0.6l0.7-0.6C9.2,1.1,9.3,1,9.5,1 C9.8,1,10,1.2,10,1.5v0.6v1.4L11.3,3c0.1,0,0.1,0,0.2,0C11.8,3,12,3.2,12,3.5V7v5.3V13c0,1.1-0.9,2-2,2H6.6c-0.4,0-0.9-0.2-1.2-0.5 l0,0l0,0l-4.1-4.1C1.1,10.1,1,10,1,9.8 M0,9.8c0,0.4,0.2,0.9,0.5,1.2l4.1,4.1C5.1,15.7,5.8,16,6.6,16H10c1.7,0,3-1.3,3-3v-0.8V7 V3.5C13,2.7,12.3,2,11.5,2c-0.2,0-0.3,0-0.5,0.1V1.5C11,0.7,10.3,0,9.5,0c-0.4,0-0.7,0.2-1,0.4C8.2,0.2,7.9,0,7.5,0 C6.8,0,6.2,0.5,6.1,1.1C5.9,1,5.7,1,5.5,1C4.7,1,4,1.7,4,2.5V7v2.5l-1-1c-0.7-0.7-1.8-0.7-2.4,0l0,0C0.2,8.9,0,9.3,0,9.8L0,9.8z"/><path fill="#ba9b48" d="M6 1.4H7V8H6zM8 1H9V8H8zM10 1.7H11V8H10z"/><path fill="#c74343" d="M9.6,9C9.2,9,8.7,9.3,8.5,9.7C8.3,9.3,7.8,9,7.4,9C6.6,9,6,9.7,6,10.5C6,11.9,8.5,14,8.5,14 s2.5-2.1,2.5-3.5C11,9.7,10.4,9,9.6,9z"/></svg>