<svg id="Calque_1" data-name="Calque 1" xmlns="http://www.w3.org/2000/svg" viewBox="0 0 378.83 378.83"><defs><style>.cls-1{fill:#fff;}.cls-2{fill:#c93b17;}.cls-3{fill:#e84f1d;}.cls-4{fill:#f39719;}.cls-5{fill:#fafafa;}</style></defs><path class="cls-1" d="M378.83,70.25V308.57a70.24,70.24,0,0,1-70.26,70.26H70.25A70.25,70.25,0,0,1,0,308.57V70.25A70.32,70.32,0,0,1,2.91,50.18h0c.13-.15.24-.3.36-.45a15.73,15.73,0,0,1,22.11-2.43l61.39,49.2L140.44,0h99.4l54.27,97.57,61.43-49.23a15.73,15.73,0,0,1,19.85.16A69.85,69.85,0,0,1,378.83,70.25Z"/><path class="cls-2" d="M378.83,70.25V308.57a70.24,70.24,0,0,1-70.26,70.26h-178a131.72,131.72,0,0,1-7.44-13.45,134,134,0,0,1-12.33-71.54,130.06,130.06,0,0,1,7.78-32.73h0a128.52,128.52,0,0,1,23.88-39.46,135.21,135.21,0,0,1,16.92-16.11l31.7-25.41,66.82-53.55,36.17-29,61.43-49.23a15.73,15.73,0,0,1,19.85.16A69.85,69.85,0,0,1,378.83,70.25Z"/><path class="cls-2" d="M257.21,365.37a129.11,129.11,0,0,1-7.58,13.46H70.25A70.25,70.25,0,0,1,0,308.57V70.25A70.32,70.32,0,0,1,2.91,50.18h0c.13-.15.24-.3.36-.45a15.73,15.73,0,0,1,22.11-2.43l61.39,49.2,36.18,29,68.17,54.63,30.38,24.35A135.86,135.86,0,0,1,239,221.22a128.76,128.76,0,0,1,23.49,39.36,130.84,130.84,0,0,1,8.27,43.21s0,0,0,0,0,0,0,0A133.87,133.87,0,0,1,257.21,365.37Z"/><path class="cls-3" d="M378.83,249.89v58.68a70.24,70.24,0,0,1-70.26,70.26H70.25A70.25,70.25,0,0,1,0,308.57V252.5l86.77-156L140.44,0h99.4l54.27,97.57Z"/><path class="cls-4" d="M347.41,367.13a69.93,69.93,0,0,1-38.84,11.7H70.25a69.8,69.8,0,0,1-37.12-10.61c-6.8-29.55-3.35-65.49,14.76-107.81L123,125.49l52.34-94.08a17,17,0,0,1,29.71,0l52.94,95.16L332.4,260.41C350.3,302.21,353.88,337.79,347.41,367.13Z"/><path class="cls-5" d="M256.07,218.46h0a54,54,0,0,1,54,54v38.87a54,54,0,0,1-54,54h0a54,54,0,0,1-54-54V272.49A54,54,0,0,1,256.07,218.46Z"/><path class="cls-5" d="M124.21,218.46h0a54,54,0,0,1,54,54v38.87a54,54,0,0,1-54,54h0a54,54,0,0,1-54-54V272.49A54,54,0,0,1,124.21,218.46Z"/><path d="M154.39,278.25a21.78,21.78,0,0,0-43.55-.93q0,.46,0,.93v23.38a21.78,21.78,0,0,0,43.55,0Z"/><path d="M270.89,278.25a21.78,21.78,0,1,0-43.55-.93q0,.46,0,.93v23.38a21.78,21.78,0,0,0,43.55,0Z"/><circle class="cls-5" cx="246.21" cy="274.04" r="9.82"/><circle class="cls-5" cx="129.31" cy="274.04" r="9.82"/></svg>